<svg width="128" height="128" viewBox="0 0 128 128" fill="none" xmlns="http://www.w3.org/2000/svg">
<g clip-path="url(#clip0)">
<path d="M65.6243 50.305L64.414 51.5506C55.3305 60.1751 41.5217 48.4257 48.5876 38.0767L49.3287 36.9912C50.2165 35.6909 51.3837 34.6056 52.7451 33.8147C63.3595 27.6478 74.1788 41.5006 65.6243 50.305Z" fill="white" stroke="#979797"/>
<path d="M63.573 72C61.8052 72 60.0775 71.7991 58.4302 71.3973V97.7143C58.4302 99.1205 59.5953 100.286 61.0016 100.286H66.1445C67.5507 100.286 68.7159 99.1205 68.7159 97.7143V71.3973C67.0686 71.7991 65.3409 72 63.573 72ZM63.573 28.2857C52.2025 28.2857 43.0016 37.4866 43.0016 48.8571C43.0016 60.2277 52.2025 69.4286 63.573 69.4286C74.9436 69.4286 84.1445 60.2277 84.1445 48.8571C84.1445 37.4866 74.9436 28.2857 63.573 28.2857ZM63.573 37.2857C57.1846 37.2857 52.0016 42.4688 52.0016 48.8571C52.0016 49.5804 51.4391 50.1429 50.7159 50.1429C49.9927 50.1429 49.4302 49.5804 49.4302 48.8571C49.4302 41.0625 55.7784 34.7143 63.573 34.7143C64.2962 34.7143 64.8587 35.2768 64.8587 36C64.8587 36.7232 64.2962 37.2857 63.573 37.2857Z" fill="#FC5959"/>
<path d="M63.573 72C61.8052 72 60.0775 71.7991 58.4302 71.3973V97.7143C58.4302 99.1205 59.5953 100.286 61.0016 100.286H66.1445C67.5507 100.286 68.7159 99.1205 68.7159 97.7143V71.3973C67.0686 71.7991 65.3409 72 63.573 72ZM63.573 28.2857C52.2025 28.2857 43.0016 37.4866 43.0016 48.8571C43.0016 60.2277 52.2025 69.4286 63.573 69.4286C74.9436 69.4286 84.1445 60.2277 84.1445 48.8571C84.1445 37.4866 74.9436 28.2857 63.573 28.2857ZM63.573 37.2857C57.1846 37.2857 52.0016 42.4688 52.0016 48.8571C52.0016 49.5804 51.4391 50.1429 50.7159 50.1429C49.9927 50.1429 49.4302 49.5804 49.4302 48.8571C49.4302 41.0625 55.7784 34.7143 63.573 34.7143C64.2962 34.7143 64.8587 35.2768 64.8587 36C64.8587 36.7232 64.2962 37.2857 63.573 37.2857Z" fill="url(#paint0_linear)"/>
</g>
<defs>
<linearGradient id="paint0_linear" x1="64" y1="71" x2="64" y2="50.5" gradientUnits="userSpaceOnUse">
<stop stop-color="#979797"/>
<stop offset="0.0552486" stop-color="white" stop-opacity="0"/>
</linearGradient>
<clipPath id="clip0">
<rect width="128" height="128" fill="white"/>
</clipPath>
</defs>
</svg>
